# xmcd
#
# Track frame offsets: 
#        150
#        24856
#        31654
#        40927
#        53474
#        68731
#        83075
#        98307
#        119159
#        127474
#
# Disc length: 1804 seconds
#
# Revision: 0
# Processed by: cddbd v1.5.2PL0 Copyright (c) Steve Scherf et al.
# Submitted via: ExactAudioCopy v0.99pb4
#
DISCID=76070a0a
DTITLE=Bruno Blue - Damn D.O.T.
DYEAR=1987
DGENRE=Comedy
TTITLE0=Damn D.O.T.
TTITLE1=M.F. Truckin' S.O.B.
TTITLE2=Red Neck M.F.
TTITLE3=Keep On Rollin'
TTITLE4=South of My Border
TTITLE5=Blue Highway
TTITLE6=Your Love Takes Me Home
TTITLE7=Peter
TTITLE8=Trouble
TTITLE9=Love's Highway
EXTD=
EXTT0=
EXTT1=
EXTT2=
EXTT3=
EXTT4=
EXTT5=
EXTT6=
EXTT7=
EXTT8=
EXTT9=
PLAYORDER=
